<svg width="88" height="36" viewBox="0 0 88 36" fill="none" xmlns="http://www.w3.org/2000/svg">
<path d="M23.4839 29H20.2439V17.012H7.06794V29H3.82794V3.296H7.06794V14.168H20.2439V3.296H23.4839V29ZM30.5115 29V3.296H33.7515V26.12H44.9835V29H30.5115ZM55.4434 18.6113C54.541 18.6113 53.6562 18.459 52.7891 18.1543C51.9219 17.8379 51.1484 17.3633 50.4688 16.7305C49.8008 16.0977 49.2617 15.3184 48.8516 14.3926C48.4414 13.4668 48.2363 12.377 48.2363 11.123C48.2363 9.96289 48.4531 8.87305 48.8867 7.85352C49.3203 6.83398 49.9238 5.94336 50.6973 5.18164C51.4824 4.4082 52.4199 3.79883 53.5098 3.35352C54.5996 2.9082 55.8066 2.68555 57.1309 2.68555C58.4668 2.68555 59.6621 2.89648 60.7168 3.31836C61.7832 3.74023 62.6914 4.33203 63.4414 5.09375C64.1914 5.84375 64.7656 6.74609 65.1641 7.80078C65.5625 8.85547 65.7617 10.0098 65.7617 11.2637C65.7617 12.0723 65.6914 12.8398 65.5508 13.5664C65.4219 14.2812 65.2285 14.9727 64.9707 15.6406C64.7129 16.3086 64.4023 16.959 64.0391 17.5918C63.6758 18.2129 63.2715 18.8398 62.8262 19.4727L56.8848 27.9805C56.6738 28.2617 56.3691 28.502 55.9707 28.7012C55.5723 28.9004 55.1094 29 54.582 29H50.5039L58.5898 18.9102C58.7891 18.6523 58.9766 18.4062 59.1523 18.1719C59.3398 17.9258 59.5156 17.6855 59.6797 17.4512C59.082 17.8262 58.4199 18.1133 57.6934 18.3125C56.9785 18.5117 56.2285 18.6113 55.4434 18.6113ZM61.5078 10.8242C61.5078 10.1094 61.3965 9.47656 61.1738 8.92578C60.9629 8.36328 60.6582 7.89453 60.2598 7.51953C59.8613 7.13281 59.3867 6.83984 58.8359 6.64062C58.2969 6.42969 57.7051 6.32422 57.0605 6.32422C56.3809 6.32422 55.7715 6.43555 55.2324 6.6582C54.6934 6.88086 54.2363 7.19141 53.8613 7.58984C53.4863 7.97656 53.1934 8.44531 52.9824 8.99609C52.7832 9.53516 52.6836 10.1328 52.6836 10.7891C52.6836 12.2422 53.0586 13.3496 53.8086 14.1113C54.5586 14.873 55.625 15.2539 57.0078 15.2539C57.7227 15.2539 58.3555 15.1426 58.9062 14.9199C59.4688 14.6855 59.9434 14.3691 60.3301 13.9707C60.7168 13.5723 61.0098 13.1035 61.209 12.5645C61.4082 12.0254 61.5078 11.4453 61.5078 10.8242Z" fill="black"/>
<path d="M84.5703 4.86523C84.5703 5.49805 84.3652 6.01367 83.9551 6.41211C83.5566 6.81055 82.8887 7.00977 81.9512 7.00977H74.7969L73.8652 12.4414C75.0371 12.1953 76.1094 12.0723 77.082 12.0723C78.4531 12.0723 79.6543 12.2773 80.6855 12.6875C81.7285 13.0977 82.6016 13.666 83.3047 14.3926C84.0195 15.1074 84.5527 15.9512 84.9043 16.9238C85.2676 17.8848 85.4492 18.9219 85.4492 20.0352C85.4492 21.418 85.2031 22.6777 84.7109 23.8145C84.2305 24.9512 83.5566 25.9297 82.6895 26.75C81.834 27.5586 80.8145 28.1855 79.6309 28.6309C78.4473 29.0645 77.1582 29.2812 75.7637 29.2812C74.9551 29.2812 74.1816 29.1992 73.4434 29.0352C72.7168 28.8711 72.0312 28.6484 71.3867 28.3672C70.7422 28.0859 70.1445 27.7637 69.5938 27.4004C69.0547 27.0254 68.5684 26.6328 68.1348 26.2227L69.5059 24.3418C69.7871 23.9316 70.168 23.7266 70.6484 23.7266C70.9531 23.7266 71.2578 23.8262 71.5625 24.0254C71.8672 24.2129 72.2246 24.4238 72.6348 24.6582C73.0449 24.8809 73.5195 25.0859 74.0586 25.2734C74.5977 25.4609 75.2539 25.5547 76.0273 25.5547C76.8359 25.5547 77.5508 25.4258 78.1719 25.168C78.8047 24.8984 79.3262 24.5293 79.7363 24.0605C80.1465 23.5801 80.457 23.0176 80.668 22.373C80.8789 21.7168 80.9844 21.002 80.9844 20.2285C80.9844 18.8105 80.5742 17.7031 79.7539 16.9062C78.9336 16.1094 77.7266 15.7109 76.1328 15.7109C74.8672 15.7109 73.6016 15.9395 72.3359 16.3965L69.5586 15.6055L71.7207 2.9668H84.5703V4.86523Z" fill="#498B4B" fill-opacity="0.56"/>
</svg>
