<svg width="28" height="28" viewBox="0 0 28 28" fill="none" xmlns="http://www.w3.org/2000/svg">
<path fill-rule="evenodd" clip-rule="evenodd" d="M19.1049 15.7896C20.2802 14.5374 21 12.8528 21 11C21 7.13401 17.866 4 14 4C10.134 4 7 7.13401 7 11C7 12.8528 7.71982 14.5374 8.89507 15.7896L13.1508 22.6342C13.542 23.2635 14.458 23.2635 14.8492 22.6342L19.1049 15.7896ZM17 11C17 12.6569 15.6569 14 14 14C12.3431 14 11 12.6569 11 11C11 9.34315 12.3431 8 14 8C15.6569 8 17 9.34315 17 11Z" fill="black"/>
</svg>
